<svg width="24" height="27" viewBox="0 0 24 27" fill="none" xmlns="http://www.w3.org/2000/svg">
<path d="M9.99999 21.8749C9.76634 21.8754 9.5399 21.7839 9.35999 21.6162C9.25873 21.5217 9.17503 21.4058 9.11368 21.2749C9.05233 21.144 9.01453 21.0008 9.00245 20.8534C8.99038 20.7061 9.00426 20.5575 9.0433 20.4162C9.08235 20.2749 9.14579 20.1436 9.22999 20.0299L13.71 13.9999L9.38999 7.95868C9.30692 7.84361 9.24489 7.7112 9.20746 7.56907C9.17003 7.42694 9.15794 7.27788 9.17187 7.13048C9.18581 6.98307 9.22551 6.84022 9.28868 6.71013C9.35186 6.58003 9.43726 6.46527 9.53999 6.37243C9.64346 6.27002 9.76462 6.19277 9.89588 6.14553C10.0271 6.09829 10.1657 6.08209 10.3028 6.09793C10.4399 6.11378 10.5726 6.16133 10.6925 6.23761C10.8125 6.31389 10.9172 6.41724 11 6.54118L15.83 13.2912C15.9771 13.4925 16.0575 13.745 16.0575 14.0056C16.0575 14.2661 15.9771 14.5186 15.83 14.7199L10.83 21.4699C10.7297 21.6061 10.6022 21.7137 10.458 21.7841C10.3138 21.8544 10.1569 21.8856 9.99999 21.8749Z" fill="#4F5051"/>
</svg>
