<svg width="30" height="26" viewBox="0 0 30 26" fill="none" xmlns="http://www.w3.org/2000/svg">
<g clip-path="url(#clip0)">
<path d="M0.158752 7.05216C0.158752 6.22315 0.540655 5.4281 1.22045 4.84191C1.90024 4.25571 2.82223 3.92639 3.7836 3.92639H25.5327C26.4941 3.92639 27.416 4.25571 28.0958 4.84191C28.7756 5.4281 29.1575 6.22315 29.1575 7.05216V8.61504H0.158752V7.05216Z" fill="#2F5296"/>
<path fill-rule="evenodd" clip-rule="evenodd" d="M0.158752 11.7408V19.5553C0.158752 20.3843 0.540655 21.1793 1.22045 21.7655C1.90024 22.3517 2.82223 22.681 3.7836 22.681H25.5327C26.4941 22.681 27.416 22.3517 28.0958 21.7655C28.7756 21.1793 29.1575 20.3843 29.1575 19.5553V11.7408H0.158752ZM5.59602 14.8666C5.11534 14.8666 4.65434 15.0313 4.31445 15.3244C3.97455 15.6175 3.7836 16.015 3.7836 16.4295V17.9924C3.7836 18.4069 3.97455 18.8044 4.31445 19.0975C4.65434 19.3906 5.11534 19.5553 5.59602 19.5553H7.40845C7.88913 19.5553 8.35013 19.3906 8.69002 19.0975C9.02992 18.8044 9.22087 18.4069 9.22087 17.9924V16.4295C9.22087 16.015 9.02992 15.6175 8.69002 15.3244C8.35013 15.0313 7.88913 14.8666 7.40845 14.8666H5.59602Z" fill="#2F5296"/>
</g>
<defs>
<clipPath id="clip0">
<rect width="28.9988" height="25.0061" fill="white" transform="translate(0.158752 0.800659)"/>
</clipPath>
</defs>
</svg>
