<svg width="99" height="101" viewBox="0 0 99 101" fill="none" xmlns="http://www.w3.org/2000/svg">
<path d="M84.4495 85.3111C93.7847 75.9402 99.0181 63.2471 99 50.0202C98.99 49.2038 98.659 48.4241 98.0781 47.8504C97.4971 47.2763 96.7138 46.9548 95.8974 46.9548C95.0806 46.9548 94.2973 47.2763 93.7163 47.8504C93.1354 48.4241 92.8044 49.2038 92.7945 50.0202C92.8076 61.6116 88.219 72.7349 80.0371 80.9458C76.0652 85.0236 71.3168 88.2647 66.0717 90.4779C60.827 92.6907 55.192 93.8308 49.4995 93.8308C43.807 93.8308 38.172 92.6907 32.9272 90.4779C27.6824 88.2647 22.934 85.0236 18.962 80.9458C10.791 72.7267 6.20473 61.608 6.20473 50.0184C6.20473 38.4285 10.791 27.3098 18.962 19.0905C22.9108 15.0441 27.6237 11.8218 32.8272 9.61038C38.0308 7.39905 43.6216 6.24262 49.2754 6.20821C50.4826 6.24602 51.6272 6.754 52.4653 7.62377C53.3034 8.49349 53.7685 9.65625 53.7612 10.864C53.7544 12.0718 53.2758 13.229 52.4277 14.089C51.5797 14.949 50.4291 15.4435 49.2215 15.4673C49.1097 15.4675 48.9979 15.4737 48.8869 15.4859C40.2851 15.7629 32.1234 19.3545 26.1084 25.5098C19.7561 31.9044 16.1909 40.5521 16.1909 49.5656C16.1909 58.5793 19.7561 67.2267 26.1084 73.6214C29.2117 76.8005 32.9195 79.3266 37.0136 81.0513C41.1076 82.776 45.5055 83.6643 49.9478 83.6643C54.3901 83.6643 58.7881 82.776 62.8822 81.0513C66.9759 79.3266 70.6838 76.8005 73.7872 73.6214C80.1494 67.2335 83.716 58.5816 83.7033 49.5656C83.7165 48.1457 83.448 46.7366 82.9137 45.4208C82.3789 44.1052 81.5893 42.9083 80.5895 41.8995C79.5897 40.8906 78.4003 40.0898 77.0894 39.5433C75.7786 38.9968 74.3727 38.7154 72.9523 38.7154C71.5319 38.7154 70.126 38.9968 68.8151 39.5433C67.5043 40.0898 66.3148 40.8906 65.3151 41.8995C64.3153 42.9083 63.5256 44.1052 62.9909 45.4208C62.4566 46.7366 62.1881 48.1457 62.2012 49.5656C62.2012 49.6562 62.2071 49.7413 62.2144 49.8282C62.2071 49.9152 62.2012 50.0021 62.2012 50.0908C62.2216 52.5667 61.5057 54.9927 60.1446 57.0615C58.784 59.1299 56.8393 60.7473 54.5577 61.709C52.2761 62.6703 49.7599 62.9324 47.3293 62.462C44.8983 61.9911 42.6621 60.8093 40.9041 59.0656C39.1462 57.3219 37.9458 55.0955 37.4553 52.6686C36.9648 50.2416 37.2062 47.7237 38.149 45.4343C39.0918 43.1447 40.6935 41.1869 42.7508 39.8091C44.8081 38.4314 47.2284 37.6958 49.7042 37.6957C50.1149 37.7007 50.5224 37.6241 50.9032 37.4704C51.284 37.3167 51.6304 37.0889 51.9224 36.8003C52.2145 36.5117 52.4468 36.168 52.6048 35.7891C52.7633 35.4102 52.8448 35.0036 52.8448 34.593C52.8448 34.1823 52.7633 33.7758 52.6048 33.3969C52.4468 33.0179 52.2145 32.6742 51.9224 32.3856C51.6304 32.097 51.284 31.8692 50.9032 31.7155C50.5224 31.5618 50.1149 31.4852 49.7042 31.4902C46.0298 31.5106 42.4436 32.6189 39.3982 34.6751C36.3529 36.7314 33.9848 39.6437 32.5928 43.0443C31.2008 46.445 30.8471 50.1819 31.5765 53.7833C32.3059 57.3848 34.0856 60.6893 36.6911 63.2806C39.2966 65.8715 42.6112 67.6328 46.2168 68.3424C49.8219 69.0514 53.557 68.677 56.9498 67.2661C60.3425 65.8552 63.2417 63.4712 65.2811 60.4145C67.3205 57.3577 68.4085 53.7652 68.4085 50.0908C68.4085 50.0003 68.4026 49.9152 68.3954 49.8282C68.4026 49.7413 68.4085 49.6544 68.4085 49.5656C68.3963 48.9611 68.505 48.3603 68.7282 47.7979C68.951 47.236 69.2842 46.7239 69.7071 46.2924C70.1305 45.8604 70.6358 45.5172 71.1932 45.2831C71.7506 45.049 72.3496 44.9284 72.9541 44.9284C73.5586 44.9284 74.1576 45.049 74.715 45.2831C75.2724 45.5172 75.7777 45.8604 76.2011 46.2924C76.624 46.7239 76.9572 47.236 77.18 47.7979C77.4032 48.3603 77.5119 48.9611 77.4997 49.5656C77.5078 56.947 74.586 64.0295 69.3757 69.2579C66.8496 71.8533 63.829 73.9158 60.4924 75.3244C57.1558 76.733 53.5706 77.4584 49.9487 77.4584C46.3273 77.4584 42.7422 76.733 39.4056 75.3244C36.069 73.9158 33.0484 71.8533 30.5222 69.2579C25.319 64.025 22.3983 56.9452 22.3983 49.5656C22.3983 42.186 25.319 35.1063 30.5222 29.8733C33.0504 27.2813 36.0711 25.2206 39.4068 23.8124C42.7426 22.4041 46.3259 21.6767 49.9469 21.6728C50.2254 21.672 50.5025 21.6337 50.771 21.5587C53.4126 21.1536 55.811 19.7875 57.5071 17.7225C59.2033 15.6574 60.0772 13.0389 59.9613 10.3692C59.8454 7.69947 58.7473 5.16656 56.8787 3.25637C55.01 1.34616 52.502 0.193165 49.8355 0.0185646C49.7241 0.00643207 49.6118 0.000235043 49.4995 0C49.4371 0 49.375 0 49.3125 0C49.2818 0 49.2519 0 49.222 0C49.1921 0 49.1613 0.00361983 49.1314 0.00452541C42.681 0.0552541 36.3044 1.38232 30.3692 3.90922C24.4341 6.4361 19.0579 10.1128 14.5505 14.7275C5.23068 24.1083 0 36.7948 0 50.0184C0 63.2417 5.23068 75.928 14.5505 85.3089C19.0995 89.9703 24.5351 93.6751 30.5373 96.2039C36.5396 98.7332 42.9871 100.036 49.5005 100.036C56.0138 100.036 62.4611 98.7332 68.4638 96.2039C74.466 93.6751 79.9013 89.9703 84.4504 85.3089L84.4495 85.3111Z" fill="url(#paint0_linear)"/>
<defs>
<linearGradient id="paint0_linear" x1="14.355" y1="85.1309" x2="77.2669" y2="23.5634" gradientUnits="userSpaceOnUse">
<stop stop-color="#F7F7F7"/>
<stop offset="0.123" stop-color="#F7F7F7"/>
<stop offset="0.284" stop-color="#F7F7F7"/>
<stop offset="0.445546" stop-color="#F7F7F7"/>
<stop offset="0.9999" stop-color="#DFE3EB"/>
<stop offset="1" stop-color="#2F5296"/>
</linearGradient>
</defs>
</svg>
