<svg width="32" height="32" viewBox="0 0 32 32" fill="none" xmlns="http://www.w3.org/2000/svg">
<path d="M14.6667 2.66663L24.3973 5.70663C24.6687 5.79135 24.9059 5.9606 25.0743 6.18968C25.2427 6.41875 25.3335 6.69565 25.3333 6.97996V9.33329H28C28.3536 9.33329 28.6928 9.47377 28.9428 9.72382C29.1929 9.97387 29.3333 10.313 29.3333 10.6666V13.3333H12V10.6666C12 10.313 12.1405 9.97387 12.3905 9.72382C12.6406 9.47377 12.9797 9.33329 13.3333 9.33329H22.6667V7.95996L14.6667 5.45863L6.66667 7.95996V17.832C6.66648 18.6483 6.85367 19.4537 7.21382 20.1863C7.57397 20.9188 8.09748 21.5589 8.744 22.0573L8.996 22.2386L14.6667 26.1066L19.7093 22.6666H13.3333C12.9797 22.6666 12.6406 22.5262 12.3905 22.2761C12.1405 22.0261 12 21.6869 12 21.3333V16H29.3333V21.3333C29.3333 21.6869 29.1929 22.0261 28.9428 22.2761C28.6928 22.5262 28.3536 22.6666 28 22.6666L23.7067 22.668C23.1907 23.348 22.564 23.948 21.84 24.4413L14.6667 29.3333L7.49333 24.4426C6.4167 23.7086 5.53567 22.7226 4.92685 21.5705C4.31804 20.4184 3.99987 19.135 4 17.832V6.97996C4.00016 6.69588 4.09105 6.41928 4.25942 6.19047C4.42778 5.96167 4.66483 5.79261 4.936 5.70796L14.6667 2.66663Z" fill="#F7F7F7"/>
</svg>
