<svg width="46" height="21" viewBox="0 0 46 21" fill="none" xmlns="http://www.w3.org/2000/svg">
<rect x="21" y="2.23535" width="25" height="18.1176" rx="2" fill="#2F5296"/>
<g clip-path="url(#clip0)">
<path d="M33.85 10.1586C32.1475 9.75776 31.6 9.34332 31.6 8.69788C31.6 7.95732 32.3575 7.44097 33.625 7.44097C34.96 7.44097 35.455 8.01847 35.5 8.86773H37.1575C37.105 7.69914 36.3175 6.62567 34.75 6.27917V4.79126H32.5V6.25879C31.045 6.54414 29.875 7.4002 29.875 8.71147C29.875 10.2809 31.3075 11.0622 33.4 11.5174C35.275 11.9251 35.65 12.523 35.65 13.1548C35.65 13.6236 35.2825 14.371 33.625 14.371C32.08 14.371 31.4725 13.7459 31.39 12.9442H29.74C29.83 14.4321 31.06 15.2678 32.5 15.5463V17.0207H34.75V15.5599C36.2125 15.3086 37.375 14.5408 37.375 13.148C37.375 11.2185 35.5525 10.5595 33.85 10.1586Z" fill="#F7F7F7"/>
</g>
<line y1="7.17065" x2="16" y2="7.17065" stroke="#2F5296"/>
<line y1="7.17065" x2="16" y2="7.17065" stroke="#2F5296"/>
<line x1="2" y1="11.7001" x2="16" y2="11.7001" stroke="#2F5296"/>
<line x1="2" y1="11.7001" x2="16" y2="11.7001" stroke="#2F5296"/>
<line x1="4" y1="16.2295" x2="16" y2="16.2295" stroke="#2F5296"/>
<line x1="4" y1="16.2295" x2="16" y2="16.2295" stroke="#2F5296"/>
<defs>
<clipPath id="clip0">
<rect width="18" height="16.3059" fill="white" transform="translate(25 0.423584)"/>
</clipPath>
</defs>
</svg>
