<svg width="22" height="22" viewBox="0 0 22 22" fill="none" xmlns="http://www.w3.org/2000/svg">
<path d="M18.7666 18.7616C20.841 16.7008 22.004 13.9093 22 11.0004C21.9978 10.8209 21.9242 10.6494 21.7951 10.5233C21.666 10.397 21.492 10.3263 21.3105 10.3263C21.129 10.3263 20.955 10.397 20.8259 10.5233C20.6968 10.6494 20.6232 10.8209 20.621 11.0004C20.6239 13.5496 19.6042 15.9959 17.786 17.8016C16.9034 18.6984 15.8482 19.4112 14.6826 19.8979C13.5171 20.3846 12.2649 20.6353 10.9999 20.6353C9.73488 20.6353 8.48268 20.3846 7.31716 19.8979C6.15165 19.4112 5.09644 18.6984 4.21378 17.8016C2.39801 15.9941 1.37883 13.5488 1.37883 11.0001C1.37883 8.4512 2.39801 6.00597 4.21378 4.1984C5.0913 3.3085 6.13859 2.59984 7.29494 2.11352C8.45128 1.6272 9.69368 1.37288 10.9501 1.36531C11.2183 1.37362 11.4727 1.48534 11.659 1.67662C11.8452 1.86789 11.9485 2.1236 11.9469 2.38922C11.9454 2.65483 11.8391 2.90933 11.6506 3.09846C11.4621 3.28758 11.2065 3.39635 10.9381 3.40157C10.9133 3.40162 10.8884 3.40299 10.8638 3.40566C8.95225 3.46658 7.13854 4.25645 5.80187 5.61011C4.39024 7.01642 3.59797 8.91822 3.59797 10.9005C3.59797 12.8828 4.39024 14.7845 5.80187 16.1908C6.4915 16.89 7.31544 17.4455 8.22524 17.8248C9.13503 18.2041 10.1123 18.3995 11.0995 18.3995C12.0867 18.3995 13.064 18.2041 13.9738 17.8248C14.8835 17.4455 15.7075 16.89 16.3972 16.1908C17.811 14.786 18.6036 12.8833 18.6007 10.9005C18.6037 10.5882 18.544 10.2783 18.4253 9.98894C18.3064 9.69962 18.1309 9.43639 17.9088 9.21453C17.6866 8.99266 17.4223 8.81655 17.131 8.69637C16.8397 8.57618 16.5273 8.5143 16.2116 8.5143C15.896 8.5143 15.5835 8.57618 15.2923 8.69637C15.001 8.81655 14.7366 8.99266 14.5145 9.21453C14.2923 9.43639 14.1168 9.69962 13.998 9.98894C13.8792 10.2783 13.8196 10.5882 13.8225 10.9005C13.8225 10.9204 13.8238 10.9391 13.8254 10.9582C13.8238 10.9773 13.8225 10.9965 13.8225 11.016C13.827 11.5605 13.6679 12.094 13.3655 12.549C13.0631 13.0039 12.631 13.3595 12.1239 13.571C11.6169 13.7825 11.0578 13.8401 10.5176 13.7366C9.97741 13.6331 9.48047 13.3732 9.08981 12.9897C8.69915 12.6062 8.4324 12.1166 8.3234 11.5829C8.21439 11.0491 8.26805 10.4954 8.47756 9.99193C8.68708 9.48838 9.043 9.05782 9.50017 8.75482C9.95735 8.45183 10.4952 8.29006 11.0454 8.29004C11.1366 8.29114 11.2272 8.27429 11.3118 8.24049C11.3964 8.20669 11.4734 8.1566 11.5383 8.09313C11.6032 8.02966 11.6548 7.95407 11.69 7.87073C11.7252 7.78741 11.7433 7.69799 11.7433 7.60769C11.7433 7.51738 11.7252 7.42797 11.69 7.34464C11.6548 7.26131 11.6032 7.18572 11.5383 7.12225C11.4734 7.05877 11.3964 7.00869 11.3118 6.97488C11.2272 6.94108 11.1366 6.92424 11.0454 6.92533C10.2288 6.92981 9.43191 7.17355 8.75517 7.62576C8.07843 8.07798 7.55218 8.71844 7.24284 9.46632C6.9335 10.2142 6.85492 11.036 7.01699 11.828C7.17908 12.6201 7.57457 13.3468 8.15358 13.9167C8.73258 14.4865 9.46916 14.8738 10.2704 15.0299C11.0715 15.1858 11.9016 15.1034 12.6555 14.7932C13.4094 14.4829 14.0537 13.9586 14.5069 13.2864C14.9601 12.6141 15.2019 11.8241 15.2019 11.016C15.2019 10.9961 15.2006 10.9773 15.199 10.9582C15.2006 10.9391 15.2019 10.92 15.2019 10.9005C15.1992 10.7675 15.2233 10.6354 15.2729 10.5117C15.3224 10.3881 15.3965 10.2755 15.4905 10.1806C15.5846 10.0856 15.6968 10.0101 15.8207 9.95867C15.9446 9.90718 16.0777 9.88066 16.212 9.88066C16.3463 9.88066 16.4795 9.90718 16.6033 9.95867C16.7272 10.0101 16.8395 10.0856 16.9336 10.1806C17.0275 10.2755 17.1016 10.3881 17.1511 10.5117C17.2007 10.6354 17.2249 10.7675 17.2221 10.9005C17.224 12.5238 16.5747 14.0814 15.4168 15.2312C14.8555 15.802 14.1842 16.2556 13.4428 16.5653C12.7013 16.8751 11.9046 17.0347 11.0997 17.0347C10.295 17.0347 9.49828 16.8751 8.7568 16.5653C8.01533 16.2556 7.34409 15.802 6.78271 15.2312C5.62644 14.0804 4.97741 12.5234 4.97741 10.9005C4.97741 9.27756 5.62644 7.72059 6.78271 6.56974C7.34453 5.9997 8.01579 5.54652 8.75707 5.23682C9.49835 4.92711 10.2947 4.76714 11.0993 4.76629C11.1612 4.76612 11.2228 4.75768 11.2824 4.74119C11.8695 4.6521 12.4024 4.35167 12.7794 3.89753C13.1563 3.44339 13.3505 2.86752 13.3247 2.2804C13.299 1.69327 13.055 1.13623 12.6397 0.716142C12.2244 0.296048 11.6671 0.0424809 11.0746 0.00408272C11.0498 0.00141454 11.0249 5.16908e-05 10.9999 0C10.986 0 10.9722 0 10.9583 0C10.9515 0 10.9449 0 10.9382 0C10.9316 0 10.9247 0.000796074 10.9181 0.000995229C9.48466 0.0121515 8.06764 0.304001 6.74872 0.859716C5.42979 1.41543 4.23508 2.22402 3.23344 3.23886C1.16237 5.3019 0 8.09191 0 11.0001C0 13.9081 1.16237 16.6981 3.23344 18.7611C4.24434 19.7863 5.45225 20.601 6.78607 21.1572C8.1199 21.7134 9.55269 22 11.0001 22C12.4475 22 13.8802 21.7134 15.2142 21.1572C16.548 20.601 17.7558 19.7863 18.7668 18.7611L18.7666 18.7616Z" fill="url(#paint0_linear)"/>
<defs>
<linearGradient id="paint0_linear" x1="3.19" y1="18.722" x2="17.028" y2="5.038" gradientUnits="userSpaceOnUse">
<stop stop-color="#F7F7F7"/>
<stop offset="0.123" stop-color="#F7F7F7"/>
<stop offset="0.284" stop-color="#F7F7F7"/>
<stop offset="0.445546" stop-color="#F7F7F7"/>
<stop offset="0.9999" stop-color="#DFE3EB"/>
<stop offset="1" stop-color="#2F5296"/>
</linearGradient>
</defs>
</svg>
