<svg width="22" height="22" viewBox="0 0 22 22" fill="none" xmlns="http://www.w3.org/2000/svg">
<path d="M9.9 6.59995C9.9 5.433 10.3636 4.31384 11.1887 3.48868C12.0139 2.66352 13.133 2.19995 14.3 2.19995C15.467 2.19995 16.5861 2.66352 17.4113 3.48868C18.2364 4.31384 18.7 5.433 18.7 6.59995V15.4H22L17.6 19.7999L13.2 15.4H16.5V6.59995C16.5 6.01647 16.2682 5.4569 15.8556 5.04432C15.4431 4.63174 14.8835 4.39995 14.3 4.39995C13.7165 4.39995 13.1569 4.63174 12.7444 5.04432C12.3318 5.4569 12.1 6.01647 12.1 6.59995V15.4C12.1 16.5669 11.6364 17.6861 10.8113 18.5112C9.98611 19.3364 8.86695 19.7999 7.7 19.7999C6.53305 19.7999 5.41389 19.3364 4.58873 18.5112C3.76357 17.6861 3.3 16.5669 3.3 15.4V6.59995H0L4.4 2.19995L8.8 6.59995H5.5V15.4C5.5 15.9834 5.73179 16.543 6.14437 16.9556C6.55695 17.3682 7.11652 17.5999 7.7 17.5999C8.28348 17.5999 8.84305 17.3682 9.25563 16.9556C9.66821 16.543 9.9 15.9834 9.9 15.4V6.59995Z" fill="#4F5051"/>
</svg>
