<svg width="22" height="22" viewBox="0 0 22 22" fill="none" xmlns="http://www.w3.org/2000/svg">
<path d="M19.25 5.0875V4.125H17.1875L11 0L4.675 4.125H2.75V5.0875L0 6.875V22H22V7.0125L19.25 5.0875ZM11 1.65L14.7125 4.125H7.15L11 1.65ZM4.125 5.5H17.875V10.5875L13.0625 12.925L11 11.1375L8.9375 13.0625L4.125 10.725V5.5ZM1.375 7.5625L2.75 6.6V9.9L1.375 9.35V7.5625ZM1.375 10.8625L7.7 14.025L1.375 19.525V10.8625ZM2.6125 20.625L11 13.3375L19.3875 20.625H2.6125ZM20.625 19.525L14.1625 13.8875L20.625 10.725V19.525ZM20.625 9.2125L19.25 9.9V6.7375L20.625 7.7V9.2125Z" fill="#4F5051"/>
</svg>
