<svg width="22" height="22" viewBox="0 0 22 22" fill="none" xmlns="http://www.w3.org/2000/svg">
<path d="M19.5556 4.88891H15.0945L14.4467 3.22668C14.358 2.99698 14.2021 2.79941 13.9993 2.65983C13.7965 2.52026 13.5562 2.44519 13.31 2.44446H8.69001C8.44276 2.44395 8.20117 2.51845 7.99714 2.6581C7.79311 2.79776 7.63624 2.99601 7.54723 3.22668L6.90556 4.88891H2.44445C2.1203 4.88891 1.80942 5.01767 1.58021 5.24689C1.351 5.4761 1.22223 5.78697 1.22223 6.11113V18.3334C1.22223 18.6575 1.351 18.9684 1.58021 19.1976C1.80942 19.4268 2.1203 19.5556 2.44445 19.5556H19.5556C19.8797 19.5556 20.1906 19.4268 20.4198 19.1976C20.649 18.9684 20.7778 18.6575 20.7778 18.3334V6.11113C20.7778 5.78697 20.649 5.4761 20.4198 5.24689C20.1906 5.01767 19.8797 4.88891 19.5556 4.88891ZM19.5556 18.3334H2.44445V6.11113H7.74278L8.69001 3.66668H13.31L14.2572 6.11113H19.5556V18.3334Z" fill="#4F5051"/>
<path d="M5.5 11.6111C5.5 12.6989 5.82257 13.7623 6.42692 14.6667C7.03126 15.5712 7.89025 16.2761 8.89524 16.6924C9.90023 17.1087 11.0061 17.2176 12.073 17.0054C13.1399 16.7932 14.1199 16.2694 14.8891 15.5002C15.6583 14.731 16.1821 13.751 16.3943 12.6841C16.6065 11.6172 16.4976 10.5113 16.0813 9.50633C15.6651 8.50133 14.9601 7.64235 14.0556 7.038C13.1512 6.43365 12.0878 6.11108 11 6.11108C9.54131 6.11108 8.14236 6.69055 7.11091 7.722C6.07946 8.75345 5.5 10.1524 5.5 11.6111ZM15.5222 11.6111C15.5222 12.5055 15.257 13.3798 14.7601 14.1235C14.2632 14.8672 13.5569 15.4468 12.7306 15.7891C11.9043 16.1314 10.995 16.2209 10.1178 16.0464C9.24053 15.8719 8.43475 15.4412 7.80231 14.8088C7.16986 14.1763 6.73916 13.3706 6.56467 12.4933C6.39018 11.6161 6.47974 10.7068 6.82201 9.88051C7.16429 9.05418 7.74391 8.3479 8.48759 7.85099C9.23126 7.35409 10.1056 7.08886 11 7.08886C12.1989 7.09048 13.3482 7.56745 14.1959 8.41518C15.0436 9.26291 15.5206 10.4122 15.5222 11.6111Z" fill="#4F5051"/>
<path d="M5.72612 7.84057C5.72612 7.71091 5.67461 7.58656 5.58293 7.49488C5.49124 7.40319 5.36689 7.35168 5.23723 7.35168H3.77057C3.6409 7.35168 3.51655 7.40319 3.42487 7.49488C3.33319 7.58656 3.28168 7.71091 3.28168 7.84057C3.28168 7.97023 3.33319 8.09459 3.42487 8.18627C3.51655 8.27795 3.6409 8.32946 3.77057 8.32946H5.23723C5.36689 8.32946 5.49124 8.27795 5.58293 8.18627C5.67461 8.09459 5.72612 7.97023 5.72612 7.84057Z" fill="#4F5051"/>
<path d="M7.5411 11.6111C7.54798 12.2556 7.73771 12.8849 8.08822 13.4258C8.43874 13.9667 8.93563 14.397 9.5211 14.6666L10.0405 13.8294C9.69062 13.7122 9.37176 13.5173 9.1079 13.2593C8.84403 13.0013 8.642 12.6869 8.51696 12.3397C8.39192 11.9925 8.34711 11.6215 8.3859 11.2545C8.42469 10.8876 8.54606 10.5341 8.74093 10.2207C8.93579 9.90733 9.19907 9.64213 9.51104 9.445C9.82301 9.24787 10.1756 9.12394 10.5423 9.08249C10.909 9.04105 11.2803 9.08316 11.6284 9.20568C11.9765 9.32821 12.2923 9.52795 12.5522 9.78994L13.0778 8.94661C12.5775 8.54126 11.9723 8.28642 11.3327 8.21176C10.6932 8.1371 10.0456 8.24571 9.46539 8.52493C8.88519 8.80414 8.39626 9.24247 8.05558 9.78885C7.71489 10.3352 7.53647 10.9672 7.5411 11.6111Z" fill="#4F5051"/>
</svg>
