<svg width="26" height="26" viewBox="0 0 26 26" fill="none" xmlns="http://www.w3.org/2000/svg">
<g clip-path="url(#clip0)">
<path d="M13.0002 4.85327C12.1817 4.85327 11.3816 5.09598 10.701 5.55071C10.0205 6.00543 9.49005 6.65175 9.17683 7.40793C8.86361 8.16412 8.78166 8.9962 8.94134 9.79895C9.10101 10.6017 9.49515 11.3391 10.0739 11.9179C10.6527 12.4966 11.39 12.8907 12.1928 13.0504C12.9956 13.2101 13.8276 13.1281 14.5838 12.8149C15.34 12.5017 15.9863 11.9713 16.441 11.2907C16.8958 10.6102 17.1385 9.81009 17.1385 8.99161C17.1385 7.89405 16.7025 6.84145 15.9264 6.06536C15.1503 5.28927 14.0977 4.85327 13.0002 4.85327ZM13.0002 11.6855C12.4674 11.6855 11.9465 11.5275 11.5035 11.2315C11.0605 10.9355 10.7152 10.5148 10.5113 10.0225C10.3074 9.53027 10.2541 8.98862 10.358 8.46605C10.462 7.94349 10.7185 7.46349 11.0953 7.08674C11.472 6.70999 11.952 6.45342 12.4746 6.34948C12.9972 6.24553 13.5388 6.29888 14.0311 6.50278C14.5233 6.70667 14.944 7.05195 15.24 7.49496C15.536 7.93797 15.694 8.4588 15.694 8.99161C15.6921 9.70482 15.4075 10.3882 14.9025 10.8918C14.3975 11.3954 13.7134 11.6783 13.0002 11.6783V11.6855Z" fill="#4F5051"/>
<path d="M13 1.44446C10.7504 1.44634 8.59295 2.33834 6.99888 3.92565C5.40481 5.51296 4.50363 7.66657 4.49219 9.91612C4.49219 13.2889 6.38441 16.1128 7.77108 18.1711L8.02385 18.5467C9.4035 20.5462 10.8835 22.4746 12.4583 24.3245L13.0072 24.9672L13.5561 24.3245C15.1306 22.4745 16.6107 20.5461 17.9905 18.5467L18.2433 18.1639C19.6227 16.1056 21.515 13.2889 21.515 9.91612C21.5035 7.66532 20.6013 5.51062 19.0057 3.9231C17.4101 2.33559 15.2508 1.44443 13 1.44446ZM17.0372 17.3333L16.7772 17.7161C15.535 19.5795 13.8883 21.6667 13 22.6995C12.1477 21.6667 10.465 19.5795 9.22274 17.7161L8.96996 17.3333C7.69163 15.4267 5.93663 12.8195 5.93663 9.88724C5.93663 8.95967 6.11933 8.04118 6.4743 7.18422C6.82926 6.32725 7.34954 5.5486 8.00543 4.8927C8.66132 4.23681 9.43998 3.71653 10.2969 3.36157C11.1539 3.0066 12.0724 2.8239 13 2.8239C13.9275 2.8239 14.846 3.0066 15.703 3.36157C16.5599 3.71653 17.3386 4.23681 17.9945 4.8927C18.6504 5.5486 19.1707 6.32725 19.5256 7.18422C19.8806 8.04118 20.0633 8.95967 20.0633 9.88724C20.0633 12.8483 18.3155 15.4556 17.0372 17.3333Z" fill="#4F5051"/>
</g>
<defs>
<clipPath id="clip0">
<rect width="26" height="26" fill="white"/>
</clipPath>
</defs>
</svg>
