<svg width="14" height="14" viewBox="0 0 14 14" fill="none" xmlns="http://www.w3.org/2000/svg">
<path d="M6.88331 6.35833C5.55915 6.01417 5.13331 5.65833 5.13331 5.10417C5.13331 4.46833 5.72248 4.025 6.70831 4.025C7.74664 4.025 8.13164 4.52083 8.16664 5.25H9.45581C9.41498 4.24667 8.80248 3.325 7.58331 3.0275V1.75H5.83331V3.01C4.70165 3.255 3.79165 3.99 3.79165 5.11583C3.79165 6.46333 4.90581 7.13417 6.53331 7.525C7.99164 7.875 8.28331 8.38833 8.28331 8.93083C8.28331 9.33333 7.99748 9.975 6.70831 9.975C5.50665 9.975 5.03415 9.43833 4.96998 8.75H3.68665C3.75665 10.0275 4.71331 10.745 5.83331 10.9842V12.25H7.58331V10.9958C8.72081 10.78 9.62498 10.1208 9.62498 8.925C9.62498 7.26833 8.20748 6.7025 6.88331 6.35833Z" fill="#2F5296"/>
</svg>
