<svg width="26" height="26" viewBox="0 0 26 26" fill="none" xmlns="http://www.w3.org/2000/svg">
<path d="M11.7 7.79998C11.7 6.42085 12.2479 5.09821 13.223 4.12302C14.1982 3.14783 15.5209 2.59998 16.9 2.59998C18.2791 2.59998 19.6018 3.14783 20.577 4.12302C21.5521 5.09821 22.1 6.42085 22.1 7.79998V18.2H26L20.8 23.4L15.6 18.2H19.5V7.79998C19.5 7.11041 19.2261 6.44909 18.7385 5.9615C18.2509 5.4739 17.5896 5.19998 16.9 5.19998C16.2104 5.19998 15.5491 5.4739 15.0615 5.9615C14.5739 6.44909 14.3 7.11041 14.3 7.79998V18.2C14.3 19.5791 13.7521 20.9017 12.777 21.8769C11.8018 22.8521 10.4791 23.4 9.1 23.4C7.72087 23.4 6.39823 22.8521 5.42304 21.8769C4.44785 20.9017 3.9 19.5791 3.9 18.2V7.79998H0L5.2 2.59998L10.4 7.79998H6.5V18.2C6.5 18.8895 6.77393 19.5509 7.26152 20.0385C7.74912 20.526 8.41044 20.8 9.1 20.8C9.78956 20.8 10.4509 20.526 10.9385 20.0385C11.4261 19.5509 11.7 18.8895 11.7 18.2V7.79998Z" fill="#F7F7F7"/>
</svg>
