<svg width="22" height="22" viewBox="0 0 22 22" fill="none" xmlns="http://www.w3.org/2000/svg">
<path d="M19.5555 4.88887H15.0944L14.4466 3.22665C14.358 2.99695 14.202 2.79938 13.9992 2.6598C13.7964 2.52022 13.5562 2.44516 13.3099 2.44443H8.68995C8.4427 2.44392 8.20111 2.51842 7.99708 2.65807C7.79305 2.79773 7.63618 2.99598 7.54717 3.22665L6.9055 4.88887H2.44439C2.12024 4.88887 1.80936 5.01764 1.58015 5.24686C1.35094 5.47607 1.22217 5.78694 1.22217 6.1111V18.3333C1.22217 18.6575 1.35094 18.9683 1.58015 19.1976C1.80936 19.4268 2.12024 19.5555 2.44439 19.5555H19.5555C19.8797 19.5555 20.1905 19.4268 20.4197 19.1976C20.649 18.9683 20.7777 18.6575 20.7777 18.3333V6.1111C20.7777 5.78694 20.649 5.47607 20.4197 5.24686C20.1905 5.01764 19.8797 4.88887 19.5555 4.88887ZM19.5555 18.3333H2.44439V6.1111H7.74272L8.68995 3.66665H13.3099L14.2572 6.1111H19.5555V18.3333Z" fill="#103783"/>
<path d="M5.5 11.6111C5.5 12.6989 5.82257 13.7623 6.42692 14.6668C7.03126 15.5712 7.89025 16.2762 8.89524 16.6925C9.90023 17.1087 11.0061 17.2177 12.073 17.0054C13.1399 16.7932 14.1199 16.2694 14.8891 15.5002C15.6583 14.731 16.1821 13.751 16.3943 12.6841C16.6065 11.6172 16.4976 10.5114 16.0813 9.50636C15.6651 8.50136 14.9601 7.64238 14.0556 7.03803C13.1512 6.43368 12.0878 6.11111 11 6.11111C9.54131 6.11111 8.14236 6.69058 7.11091 7.72203C6.07946 8.75348 5.5 10.1524 5.5 11.6111ZM15.5222 11.6111C15.5222 12.5055 15.257 13.3799 14.7601 14.1235C14.2632 14.8672 13.5569 15.4468 12.7306 15.7891C11.9043 16.1314 10.995 16.2209 10.1178 16.0464C9.24053 15.872 8.43475 15.4413 7.80231 14.8088C7.16986 14.1764 6.73916 13.3706 6.56467 12.4934C6.39018 11.6161 6.47974 10.7069 6.82201 9.88054C7.16429 9.05421 7.74391 8.34793 8.48759 7.85102C9.23126 7.35412 10.1056 7.08889 11 7.08889C12.1989 7.09051 13.3482 7.56748 14.1959 8.41521C15.0436 9.26294 15.5206 10.4122 15.5222 11.6111Z" fill="#103783"/>
<path d="M5.72618 7.84054C5.72618 7.71088 5.67467 7.58653 5.58299 7.49485C5.49131 7.40316 5.36695 7.35165 5.23729 7.35165H3.77063C3.64097 7.35165 3.51662 7.40316 3.42493 7.49485C3.33325 7.58653 3.28174 7.71088 3.28174 7.84054C3.28174 7.9702 3.33325 8.09456 3.42493 8.18624C3.51662 8.27792 3.64097 8.32943 3.77063 8.32943H5.23729C5.36695 8.32943 5.49131 8.27792 5.58299 8.18624C5.67467 8.09456 5.72618 7.9702 5.72618 7.84054Z" fill="#103783"/>
<path d="M7.5411 11.6111C7.54798 12.2556 7.73771 12.885 8.08822 13.4259C8.43874 13.9668 8.93563 14.3971 9.5211 14.6667L10.0405 13.8294C9.69062 13.7123 9.37176 13.5174 9.1079 13.2594C8.84403 13.0014 8.642 12.687 8.51696 12.3398C8.39192 11.9926 8.34711 11.6216 8.3859 11.2546C8.42469 10.8876 8.54606 10.5342 8.74093 10.2208C8.93579 9.90739 9.19907 9.64219 9.51104 9.44506C9.82301 9.24793 10.1756 9.124 10.5423 9.08255C10.909 9.04111 11.2803 9.08322 11.6284 9.20574C11.9765 9.32827 12.2923 9.52801 12.5522 9.79L13.0778 8.94667C12.5775 8.54132 11.9723 8.28648 11.3327 8.21182C10.6932 8.13717 10.0456 8.24577 9.46539 8.52499C8.88519 8.8042 8.39626 9.24253 8.05558 9.78892C7.71489 10.3353 7.53647 10.9672 7.5411 11.6111Z" fill="#103783"/>
</svg>
