<svg width="26" height="25" viewBox="0 0 26 25" fill="none" xmlns="http://www.w3.org/2000/svg">
<g clip-path="url(#clip0)">
<path d="M20.1849 4.16671H18.1379V3.12504C18.1379 2.84877 18.03 2.58382 17.8381 2.38847C17.6461 2.19312 17.3858 2.08337 17.1144 2.08337C16.8429 2.08337 16.5826 2.19312 16.3906 2.38847C16.1987 2.58382 16.0909 2.84877 16.0909 3.12504V4.16671H9.94988V3.12504C9.94988 2.84877 9.84205 2.58382 9.6501 2.38847C9.45816 2.19312 9.19783 2.08337 8.92638 2.08337C8.65493 2.08337 8.3946 2.19312 8.20266 2.38847C8.01072 2.58382 7.90288 2.84877 7.90288 3.12504V4.16671H5.85589C5.04154 4.16671 4.26055 4.49595 3.68472 5.082C3.10889 5.66805 2.78539 6.46291 2.78539 7.29171V19.7917C2.78539 20.6205 3.10889 21.4154 3.68472 22.0014C4.26055 22.5875 5.04154 22.9167 5.85589 22.9167H20.1849C20.9992 22.9167 21.7802 22.5875 22.356 22.0014C22.9319 21.4154 23.2554 20.6205 23.2554 19.7917V7.29171C23.2554 6.46291 22.9319 5.66805 22.356 5.082C21.7802 4.49595 20.9992 4.16671 20.1849 4.16671ZM21.2084 19.7917C21.2084 20.068 21.1005 20.3329 20.9086 20.5283C20.7166 20.7236 20.4563 20.8334 20.1849 20.8334H5.85589C5.58444 20.8334 5.32411 20.7236 5.13216 20.5283C4.94022 20.3329 4.83239 20.068 4.83239 19.7917V12.5H21.2084V19.7917ZM21.2084 10.4167H4.83239V7.29171C4.83239 7.01544 4.94022 6.75049 5.13216 6.55514C5.32411 6.35979 5.58444 6.25004 5.85589 6.25004H7.90288V7.29171C7.90288 7.56798 8.01072 7.83293 8.20266 8.02828C8.3946 8.22363 8.65493 8.33337 8.92638 8.33337C9.19783 8.33337 9.45816 8.22363 9.6501 8.02828C9.84205 7.83293 9.94988 7.56798 9.94988 7.29171V6.25004H16.0909V7.29171C16.0909 7.56798 16.1987 7.83293 16.3906 8.02828C16.5826 8.22363 16.8429 8.33337 17.1144 8.33337C17.3858 8.33337 17.6461 8.22363 17.8381 8.02828C18.03 7.83293 18.1379 7.56798 18.1379 7.29171V6.25004H20.1849C20.4563 6.25004 20.7166 6.35979 20.9086 6.55514C21.1005 6.75049 21.2084 7.01544 21.2084 7.29171V10.4167Z" fill="#2F5296"/>
<g clip-path="url(#clip1)">
<ellipse cx="20" cy="20.5" rx="4.54545" ry="5" fill="#2F5296"/>
<path d="M19.9432 15.25C17.3075 15.25 15.1704 17.6008 15.1704 20.5C15.1704 23.3992 17.3075 25.75 19.9432 25.75C22.5788 25.75 24.7159 23.3992 24.7159 20.5C24.7159 17.6008 22.5788 15.25 19.9432 15.25ZM19.9432 24.8594C17.7549 24.8594 15.9801 22.907 15.9801 20.5C15.9801 18.093 17.7549 16.1406 19.9432 16.1406C22.1314 16.1406 23.9062 18.093 23.9062 20.5C23.9062 22.907 22.1314 24.8594 19.9432 24.8594Z" fill="#F7F7F7"/>
<path d="M21.706 22.4836L20.3134 21.2754V18.375C20.3134 18.3234 20.2783 18.2812 20.2353 18.2812H19.7656C19.7226 18.2812 19.6875 18.3234 19.6875 18.375V21.6023C19.6875 21.6328 19.6992 21.6609 19.7197 21.6785L21.3349 23.0918C21.3701 23.1223 21.4189 23.1129 21.4443 23.0719L21.7236 22.6148C21.749 22.5715 21.7412 22.5129 21.706 22.4836Z" fill="#F7F7F7"/>
</g>
</g>
<defs>
<clipPath id="clip0">
<rect width="24.564" height="25" fill="white" transform="translate(0.738377)"/>
</clipPath>
<clipPath id="clip1">
<rect width="10" height="12" fill="white" transform="translate(15 15)"/>
</clipPath>
</defs>
</svg>
