<svg width="25" height="25" viewBox="0 0 25 25" fill="none" xmlns="http://www.w3.org/2000/svg">
<path d="M19.4465 4.16671H17.3995V3.12504C17.3995 2.84877 17.2917 2.58382 17.0997 2.38847C16.9078 2.19312 16.6474 2.08337 16.376 2.08337C16.1045 2.08337 15.8442 2.19312 15.6523 2.38847C15.4603 2.58382 15.3525 2.84877 15.3525 3.12504V4.16671H9.2115V3.12504C9.2115 2.84877 9.10367 2.58382 8.91172 2.38847C8.71978 2.19312 8.45945 2.08337 8.188 2.08337C7.91655 2.08337 7.65622 2.19312 7.46428 2.38847C7.27234 2.58382 7.1645 2.84877 7.1645 3.12504V4.16671H5.11751C4.30316 4.16671 3.52217 4.49595 2.94634 5.082C2.37051 5.66805 2.04701 6.46291 2.04701 7.29171V19.7917C2.04701 20.6205 2.37051 21.4154 2.94634 22.0014C3.52217 22.5875 4.30316 22.9167 5.11751 22.9167H19.4465C20.2608 22.9167 21.0418 22.5875 21.6176 22.0014C22.1935 21.4154 22.517 20.6205 22.517 19.7917V7.29171C22.517 6.46291 22.1935 5.66805 21.6176 5.082C21.0418 4.49595 20.2608 4.16671 19.4465 4.16671ZM20.47 19.7917C20.47 20.068 20.3621 20.3329 20.1702 20.5283C19.9783 20.7236 19.7179 20.8334 19.4465 20.8334H5.11751C4.84606 20.8334 4.58573 20.7236 4.39378 20.5283C4.20184 20.3329 4.09401 20.068 4.09401 19.7917V12.5H20.47V19.7917ZM20.47 10.4167H4.09401V7.29171C4.09401 7.01544 4.20184 6.75049 4.39378 6.55514C4.58573 6.35979 4.84606 6.25004 5.11751 6.25004H7.1645V7.29171C7.1645 7.56798 7.27234 7.83293 7.46428 8.02828C7.65622 8.22363 7.91655 8.33337 8.188 8.33337C8.45945 8.33337 8.71978 8.22363 8.91172 8.02828C9.10367 7.83293 9.2115 7.56798 9.2115 7.29171V6.25004H15.3525V7.29171C15.3525 7.56798 15.4603 7.83293 15.6523 8.02828C15.8442 8.22363 16.1045 8.33337 16.376 8.33337C16.6474 8.33337 16.9078 8.22363 17.0997 8.02828C17.2917 7.83293 17.3995 7.56798 17.3995 7.29171V6.25004H19.4465C19.7179 6.25004 19.9783 6.35979 20.1702 6.55514C20.3621 6.75049 20.47 7.01544 20.47 7.29171V10.4167Z" fill="#2F5296"/>
</svg>
