<svg width="32" height="10" viewBox="0 0 32 10" fill="none" xmlns="http://www.w3.org/2000/svg">
<path d="M9.05664 9H7.16992L6.41992 7.04883H2.98633L2.27734 9H0.4375L3.7832 0.410156H5.61719L9.05664 9ZM5.86328 5.60156L4.67969 2.41406L3.51953 5.60156H5.86328ZM11.0254 9V1.86328H8.47656V0.410156H15.3027V1.86328H12.7598V9H11.0254ZM24.0273 7.95117L23.0312 9.22266C22.543 8.98438 22.0742 8.65625 21.625 8.23828C21.2773 8.55078 20.9082 8.78125 20.5176 8.92969C20.127 9.07812 19.6621 9.15234 19.123 9.15234C18.0527 9.15234 17.248 8.85156 16.709 8.25C16.291 7.78516 16.082 7.25 16.082 6.64453C16.082 6.09375 16.2461 5.59961 16.5742 5.16211C16.9023 4.7207 17.3926 4.33789 18.0449 4.01367C17.752 3.66602 17.5312 3.33594 17.3828 3.02344C17.2344 2.70703 17.1602 2.4082 17.1602 2.12695C17.1602 1.60742 17.3672 1.16797 17.7812 0.808594C18.1992 0.445312 18.793 0.263672 19.5625 0.263672C20.3047 0.263672 20.8848 0.453125 21.3027 0.832031C21.7207 1.21094 21.9297 1.67383 21.9297 2.2207C21.9297 2.56836 21.8262 2.89844 21.6191 3.21094C21.4121 3.52344 20.9941 3.87695 20.3652 4.27148L21.5605 5.84766C21.7012 5.59766 21.8223 5.27148 21.9238 4.86914L23.4121 5.20898C23.2637 5.73633 23.1348 6.12305 23.0254 6.36914C22.916 6.61133 22.7988 6.81445 22.6738 6.97852C22.8574 7.15039 23.0938 7.33984 23.3828 7.54688C23.6758 7.75 23.8906 7.88477 24.0273 7.95117ZM19.5449 3.28125L19.9902 2.94141C20.3184 2.6875 20.4824 2.43555 20.4824 2.18555C20.4824 1.97461 20.4023 1.79492 20.2422 1.64648C20.0859 1.49805 19.873 1.42383 19.6035 1.42383C19.3418 1.42383 19.1367 1.49023 18.9883 1.62305C18.8398 1.75195 18.7656 1.90234 18.7656 2.07422C18.7656 2.27734 18.8906 2.52344 19.1406 2.8125L19.5449 3.28125ZM18.9004 5.06836C18.5215 5.25977 18.2383 5.49023 18.0508 5.75977C17.8633 6.0293 17.7695 6.30469 17.7695 6.58594C17.7695 6.94141 17.8848 7.23242 18.1152 7.45898C18.3496 7.68164 18.6621 7.79297 19.0527 7.79297C19.3105 7.79297 19.5586 7.74219 19.7969 7.64062C20.0352 7.53906 20.2949 7.37109 20.5762 7.13672L18.9004 5.06836ZM27.0332 9V1.86328H24.4844V0.410156H31.3105V1.86328H28.7676V9H27.0332Z" fill="#F7F7F7"/>
</svg>
