<svg width="226" height="226" viewBox="0 0 226 226" fill="none" xmlns="http://www.w3.org/2000/svg">
<circle cx="113" cy="113" r="113" fill="#C6D6F5"/>
<circle cx="112.5" cy="113.5" r="82.5" fill="#5F7BB4" stroke="#F7F7F7" stroke-width="2"/>
<path d="M135.545 72.7976H123.529L121.784 68.3203C121.545 67.7016 121.125 67.1695 120.579 66.7935C120.032 66.4175 119.385 66.2153 118.722 66.2134H106.278C105.612 66.212 104.961 66.4127 104.412 66.7888C103.862 67.165 103.44 67.699 103.2 68.3203L101.471 72.7976H89.4552C88.5821 72.7976 87.7447 73.1445 87.1273 73.7619C86.5099 74.3792 86.1631 75.2166 86.1631 76.0897V109.011C86.1631 109.884 86.5099 110.721 87.1273 111.339C87.7447 111.956 88.5821 112.303 89.4552 112.303H135.545C136.418 112.303 137.255 111.956 137.873 111.339C138.49 110.721 138.837 109.884 138.837 109.011V76.0897C138.837 75.2166 138.49 74.3792 137.873 73.7619C137.255 73.1445 136.418 72.7976 135.545 72.7976V72.7976ZM135.545 109.011H89.4552V76.0897H103.727L106.278 69.5055H118.722L121.273 76.0897H135.545V109.011Z" fill="#F7F7F7"/>
<path d="M97.6855 90.9044C97.6855 93.8344 98.5544 96.6986 100.182 99.1349C101.81 101.571 104.124 103.47 106.831 104.591C109.538 105.712 112.516 106.006 115.39 105.434C118.264 104.863 120.904 103.452 122.976 101.38C125.047 99.308 126.458 96.6683 127.03 93.7945C127.602 90.9208 127.308 87.9421 126.187 85.2351C125.066 82.5281 123.167 80.2144 120.731 78.5865C118.294 76.9587 115.43 76.0898 112.5 76.0898C108.571 76.0898 104.803 77.6507 102.025 80.4289C99.2464 83.2072 97.6855 86.9753 97.6855 90.9044V90.9044ZM124.681 90.9044C124.681 93.3135 123.966 95.6685 122.628 97.6717C121.29 99.6748 119.387 101.236 117.161 102.158C114.936 103.08 112.487 103.321 110.124 102.851C107.761 102.381 105.59 101.221 103.887 99.5175C102.183 97.814 101.023 95.6436 100.553 93.2807C100.083 90.9179 100.325 88.4687 101.246 86.243C102.168 84.0172 103.73 82.1148 105.733 80.7764C107.736 79.4379 110.091 78.7235 112.5 78.7235C115.729 78.7279 118.825 80.0126 121.108 82.296C123.392 84.5794 124.677 87.6751 124.681 90.9044V90.9044Z" fill="#F7F7F7"/>
<path d="M98.2949 80.748C98.2949 80.3987 98.1562 80.0638 97.9092 79.8168C97.6623 79.5699 97.3273 79.4312 96.9781 79.4312H93.0275C92.6783 79.4312 92.3433 79.5699 92.0964 79.8168C91.8494 80.0638 91.7107 80.3987 91.7107 80.748C91.7107 81.0972 91.8494 81.4322 92.0964 81.6791C92.3433 81.9261 92.6783 82.0648 93.0275 82.0648H96.9781C97.3273 82.0648 97.6623 81.9261 97.9092 81.6791C98.1562 81.4322 98.2949 81.0972 98.2949 80.748V80.748Z" fill="#F7F7F7"/>
<path d="M103.183 90.9042C103.202 92.6402 103.713 94.3353 104.657 95.7923C105.601 97.2493 106.94 98.4083 108.517 99.1345L109.916 96.8794C108.973 96.5637 108.114 96.0387 107.404 95.3438C106.693 94.6489 106.149 93.8021 105.812 92.8669C105.475 91.9317 105.354 90.9324 105.459 89.9439C105.563 88.9554 105.89 88.0034 106.415 87.1592C106.94 86.3151 107.649 85.6008 108.489 85.0698C109.33 84.5388 110.279 84.205 111.267 84.0934C112.255 83.9817 113.255 84.0952 114.193 84.4252C115.13 84.7552 115.981 85.2932 116.681 85.9989L118.097 83.7274C116.749 82.6355 115.119 81.9491 113.396 81.748C111.674 81.5469 109.929 81.8395 108.367 82.5915C106.804 83.3436 105.487 84.5243 104.569 85.996C103.651 87.4677 103.171 89.1699 103.183 90.9042V90.9042Z" fill="#F7F7F7"/>
<path d="M94.5898 148L90.2305 136.609H90.1602C90.2422 137.512 90.2832 138.584 90.2832 139.826V148H88.9033V135.15H91.1533L95.2227 145.75H95.293L99.3975 135.15H101.63V148H100.136V139.721C100.136 138.771 100.177 137.74 100.259 136.627H100.188L95.7939 148H94.5898ZM113.24 148L111.641 143.913H106.49L104.908 148H103.396L108.477 135.098H109.733L114.787 148H113.24ZM111.175 142.568L109.681 138.587C109.487 138.083 109.288 137.465 109.083 136.732C108.954 137.295 108.77 137.913 108.529 138.587L107.018 142.568H111.175ZM125.835 148H124.077L119.393 141.769L118.048 142.964V148H116.554V135.15H118.048V141.522L123.875 135.15H125.642L120.474 140.731L125.835 148ZM134.773 148H127.61V135.15H134.773V136.478H129.104V140.617H134.431V141.936H129.104V146.664H134.773V148ZM87.0752 166.452C87.0752 168.573 86.498 170.196 85.3438 171.321C84.1953 172.44 82.54 173 80.3779 173H76.8184V160.15H80.7559C82.7539 160.15 84.3066 160.704 85.4141 161.812C86.5215 162.919 87.0752 164.466 87.0752 166.452ZM85.4932 166.505C85.4932 164.829 85.0713 163.566 84.2275 162.717C83.3896 161.867 82.1416 161.442 80.4834 161.442H78.3125V171.708H80.1318C81.9131 171.708 83.252 171.271 84.1484 170.398C85.0449 169.52 85.4932 168.222 85.4932 166.505ZM97.1123 173H89.9492V160.15H97.1123V161.478H91.4434V165.617H96.7695V166.936H91.4434V171.664H97.1123V173ZM108.116 163.895C108.116 165.195 107.671 166.197 106.78 166.9C105.896 167.598 104.627 167.946 102.975 167.946H101.463V173H99.9688V160.15H103.3C106.511 160.15 108.116 161.398 108.116 163.895ZM101.463 166.663H102.808C104.132 166.663 105.09 166.449 105.682 166.021C106.273 165.594 106.569 164.908 106.569 163.965C106.569 163.115 106.291 162.482 105.734 162.066C105.178 161.65 104.311 161.442 103.133 161.442H101.463V166.663ZM121.968 166.558C121.968 168.614 121.446 170.231 120.403 171.409C119.366 172.587 117.922 173.176 116.07 173.176C114.178 173.176 112.716 172.599 111.685 171.444C110.659 170.284 110.146 168.649 110.146 166.54C110.146 164.448 110.662 162.828 111.693 161.68C112.725 160.525 114.189 159.948 116.088 159.948C117.934 159.948 119.375 160.534 120.412 161.706C121.449 162.878 121.968 164.495 121.968 166.558ZM111.729 166.558C111.729 168.298 112.098 169.619 112.836 170.521C113.58 171.418 114.658 171.866 116.07 171.866C117.494 171.866 118.569 171.418 119.296 170.521C120.022 169.625 120.386 168.304 120.386 166.558C120.386 164.829 120.022 163.52 119.296 162.629C118.575 161.732 117.506 161.284 116.088 161.284C114.664 161.284 113.58 161.735 112.836 162.638C112.098 163.534 111.729 164.841 111.729 166.558ZM132.093 169.581C132.093 170.712 131.683 171.594 130.862 172.227C130.042 172.859 128.929 173.176 127.522 173.176C125.999 173.176 124.827 172.979 124.007 172.587V171.146C124.534 171.368 125.108 171.544 125.729 171.673C126.351 171.802 126.966 171.866 127.575 171.866C128.571 171.866 129.321 171.679 129.825 171.304C130.329 170.923 130.581 170.396 130.581 169.722C130.581 169.276 130.49 168.913 130.309 168.632C130.133 168.345 129.834 168.081 129.412 167.841C128.996 167.601 128.36 167.328 127.505 167.023C126.31 166.596 125.454 166.089 124.938 165.503C124.429 164.917 124.174 164.152 124.174 163.209C124.174 162.219 124.546 161.431 125.29 160.845C126.034 160.259 127.019 159.966 128.243 159.966C129.521 159.966 130.695 160.2 131.768 160.669L131.302 161.97C130.241 161.524 129.21 161.302 128.208 161.302C127.417 161.302 126.799 161.472 126.354 161.812C125.908 162.151 125.686 162.623 125.686 163.227C125.686 163.672 125.768 164.038 125.932 164.325C126.096 164.606 126.371 164.867 126.758 165.107C127.15 165.342 127.748 165.603 128.551 165.89C129.898 166.37 130.824 166.886 131.328 167.437C131.838 167.987 132.093 168.702 132.093 169.581ZM134.721 173V160.15H136.215V173H134.721ZM143.703 173H142.209V161.478H138.14V160.15H147.772V161.478H143.703V173Z" fill="#F7F7F7"/>
</svg>
