<svg width="24" height="24" viewBox="0 0 24 24" fill="none" xmlns="http://www.w3.org/2000/svg">
<path d="M16.9201 12.0466C17.4208 12.0466 17.8268 11.6407 17.8268 11.1399C17.8268 10.6392 17.4208 10.2333 16.9201 10.2333C16.4194 10.2333 16.0134 10.6392 16.0134 11.1399C16.0134 11.6407 16.4194 12.0466 16.9201 12.0466Z" fill="#2F5296"/>
<path d="M23.6733 12.42C23.6116 12.3286 23.5281 12.254 23.4303 12.2028C23.3326 12.1516 23.2237 12.1254 23.1133 12.1267C22.5747 12.0519 22.0805 11.7871 21.72 11.38C21.0262 10.6217 20.4365 9.7742 19.9667 8.86002L21.8867 5.86002C22.0032 5.68617 22.0745 5.48604 22.0943 5.2777C22.1141 5.06936 22.0817 4.85937 22 4.66669C21.9182 4.4914 21.7945 4.33892 21.6399 4.22267C21.4853 4.10641 21.3044 4.02995 21.1133 4.00002C19.8924 3.83548 18.6497 4.0084 17.52 4.50002C16.8726 4.78519 16.2634 5.15025 15.7067 5.58669C14.6162 5.09774 13.4551 4.78496 12.2667 4.66002C7.54 4.20002 3.22 7.26669 2.66667 11.3334C2.45102 11.2363 2.25789 11.0956 2.09952 10.92C1.94115 10.7444 1.82099 10.5378 1.74667 10.3134C1.69913 10.1594 1.6829 9.99755 1.69893 9.83725C1.71496 9.67695 1.76293 9.52149 1.84 9.38002C1.90911 9.26125 2.0079 9.16247 2.12667 9.09336C2.20765 9.04433 2.27818 8.97983 2.33424 8.90355C2.39029 8.82726 2.43077 8.74068 2.45337 8.64875C2.47596 8.55682 2.48023 8.46134 2.46593 8.36776C2.45162 8.27418 2.41903 8.18434 2.37 8.10336C2.32097 8.02237 2.25647 7.95184 2.18019 7.89579C2.1039 7.83973 2.01732 7.79925 1.92539 7.77665C1.83346 7.75406 1.73798 7.74979 1.64441 7.7641C1.55083 7.7784 1.46098 7.811 1.38 7.86002C1.05728 8.05811 0.790962 8.3359 0.606665 8.66669C0.435321 8.97713 0.327609 9.31863 0.289834 9.6712C0.252059 10.0238 0.284978 10.3803 0.386665 10.72C0.511831 11.1317 0.719396 11.5135 0.996741 11.8425C1.27409 12.1714 1.61542 12.4405 2 12.6334L2.61333 12.94C2.68995 14.5629 3.10314 16.152 3.82667 17.6067L3.94 17.86C4.51823 19.0829 5.25574 20.2239 6.13333 21.2534C6.19581 21.3245 6.27271 21.3815 6.35892 21.4205C6.44513 21.4596 6.53868 21.4799 6.63333 21.48H9.64667C9.75585 21.4795 9.86324 21.4521 9.95938 21.4004C10.0555 21.3486 10.1375 21.274 10.198 21.1832C10.2586 21.0923 10.2959 20.988 10.3067 20.8793C10.3175 20.7707 10.3015 20.661 10.26 20.56L10 19.96L10.7867 20.0467C11.6734 20.1343 12.5666 20.1343 13.4533 20.0467C13.7 20.4467 13.9667 20.8467 14.26 21.24C14.3214 21.324 14.4016 21.3925 14.4942 21.44C14.5868 21.4875 14.6893 21.5126 14.7933 21.5134H17.6867C17.7967 21.5133 17.905 21.4859 18.0019 21.4338C18.0988 21.3817 18.1813 21.3064 18.2421 21.2146C18.3028 21.1229 18.3399 21.0175 18.35 20.9079C18.3601 20.7984 18.3429 20.688 18.3 20.5867C18.1867 20.32 18.0733 20.0334 17.9867 19.7867C17.8667 19.4334 17.7733 19.12 17.7 18.82C18.4363 18.4225 19.112 17.9219 19.7067 17.3334C20.3709 17.4136 21.0424 17.4136 21.7067 17.3334C21.8219 17.3159 21.9306 17.2686 22.0218 17.1961C22.1131 17.1235 22.1837 17.0284 22.2267 16.92L23.7333 13.0467C23.7757 12.9454 23.7924 12.8352 23.782 12.7258C23.7715 12.6165 23.7342 12.5115 23.6733 12.42ZM21.1533 16.0467C20.63 16.0765 20.1049 16.0519 19.5867 15.9734C18.9965 15.8737 18.4267 15.6777 17.9 15.3934C17.744 15.316 17.564 15.3028 17.3983 15.3564C17.2327 15.4101 17.0947 15.5264 17.0137 15.6805C16.9327 15.8347 16.9152 16.0144 16.965 16.1812C17.0148 16.348 17.1278 16.4888 17.28 16.5734C17.5586 16.7194 17.8458 16.8486 18.14 16.96C17.7765 17.2704 17.3728 17.5305 16.94 17.7334L16.2333 18.0534C16.2333 18.0534 16.56 19.5134 16.78 20.16H15.1933C15.0333 19.9334 14.2267 18.5867 14.2267 18.5867L13.78 18.6467C12.8418 18.782 11.8911 18.8088 10.9467 18.7267C10.5067 18.6867 9.77333 18.5934 9.2 18.4934L8.16667 18.3134C8.16667 18.3134 8.58667 19.9334 8.66667 20.14H6.94667C6.24407 19.2797 5.6486 18.3373 5.17333 17.3334L5.05333 17.0734C4.18713 15.406 3.82134 13.5238 4 11.6534C4.36 8.19336 8.08 5.58002 12.1267 5.96002C13.3038 6.09198 14.4495 6.42575 15.5133 6.94669L15.9267 7.14002L16.26 6.82669C16.7791 6.36281 17.3659 5.98065 18 5.69336C18.839 5.32945 19.7556 5.18051 20.6667 5.26002L18.4133 8.78669L18.58 9.12002C19.1622 10.2928 19.9049 11.3788 20.7867 12.3467C21.1962 12.7469 21.6811 13.0619 22.2133 13.2734L21.1533 16.0467Z" fill="#4F5051"/>
<path d="M11.2556 11.5722C10.3728 11.3428 10.089 11.1056 10.089 10.7361C10.089 10.3122 10.4817 10.0167 11.139 10.0167C11.8312 10.0167 12.0878 10.3472 12.1112 10.8333H12.9706C12.9434 10.1644 12.5351 9.55 11.7223 9.35167V8.5H10.5556V9.34C9.80118 9.50333 9.19451 9.99333 9.19451 10.7439C9.19451 11.6422 9.93729 12.0894 11.0223 12.35C11.9945 12.5833 12.189 12.9256 12.189 13.2872C12.189 13.5556 11.9984 13.9833 11.139 13.9833C10.3378 13.9833 10.0228 13.6256 9.98007 13.1667H9.12451C9.17118 14.0183 9.80896 14.4967 10.5556 14.6561V15.5H11.7223V14.6639C12.4806 14.52 13.0834 14.0806 13.0834 13.2833C13.0834 12.1789 12.1384 11.8017 11.2556 11.5722Z" fill="#4F5051"/>
</svg>
