<svg width="24" height="24" viewBox="0 0 24 24" fill="none" xmlns="http://www.w3.org/2000/svg">
<path fill-rule="evenodd" clip-rule="evenodd" d="M12 2.25C9.41414 2.25 6.93419 3.27723 5.10571 5.10571C3.27723 6.93419 2.25 9.41414 2.25 12C2.25 14.5859 3.27723 17.0658 5.10571 18.8943C6.93419 20.7228 9.41414 21.75 12 21.75C14.5859 21.75 17.0658 20.7228 18.8943 18.8943C20.7228 17.0658 21.75 14.5859 21.75 12C21.75 9.41414 20.7228 6.93419 18.8943 5.10571C17.0658 3.27723 14.5859 2.25 12 2.25V2.25ZM0 12C0 8.8174 1.26428 5.76516 3.51472 3.51472C5.76516 1.26428 8.8174 0 12 0C15.1826 0 18.2348 1.26428 20.4853 3.51472C22.7357 5.76516 24 8.8174 24 12C24 15.1826 22.7357 18.2348 20.4853 20.4853C18.2348 22.7357 15.1826 24 12 24C8.8174 24 5.76516 22.7357 3.51472 20.4853C1.26428 18.2348 0 15.1826 0 12V12ZM9.75 11.625C9.75 11.3266 9.86853 11.0405 10.0795 10.8295C10.2905 10.6185 10.5766 10.5 10.875 10.5H12.375C12.6734 10.5 12.9595 10.6185 13.1705 10.8295C13.3815 11.0405 13.5 11.3266 13.5 11.625V15.75H13.875C14.1734 15.75 14.4595 15.8685 14.6705 16.0795C14.8815 16.2905 15 16.5766 15 16.875C15 17.1734 14.8815 17.4595 14.6705 17.6705C14.4595 17.8815 14.1734 18 13.875 18H10.875C10.5766 18 10.2905 17.8815 10.0795 17.6705C9.86853 17.4595 9.75 17.1734 9.75 16.875C9.75 16.5766 9.86853 16.2905 10.0795 16.0795C10.2905 15.8685 10.5766 15.75 10.875 15.75H11.25V12.75H10.875C10.5766 12.75 10.2905 12.6315 10.0795 12.4205C9.86853 12.2095 9.75 11.9234 9.75 11.625V11.625ZM12 9C12.3978 9 12.7794 8.84196 13.0607 8.56066C13.342 8.27936 13.5 7.89782 13.5 7.5C13.5 7.10218 13.342 6.72064 13.0607 6.43934C12.7794 6.15804 12.3978 6 12 6C11.6022 6 11.2206 6.15804 10.9393 6.43934C10.658 6.72064 10.5 7.10218 10.5 7.5C10.5 7.89782 10.658 8.27936 10.9393 8.56066C11.2206 8.84196 11.6022 9 12 9Z" fill="#737373"/>
</svg>
