<svg width="25" height="25" viewBox="0 0 25 25" fill="none" xmlns="http://www.w3.org/2000/svg">
<path d="M12.5 9.37498C14.1562 17.3021 10.4166 22.9166 10.4166 22.9166H13.5416C15.5 16.875 14.5833 12.5937 14.0625 10.4166L12.5 9.37498ZM16.3125 7.45831C16.4896 7.67706 16.6666 7.90623 16.8021 8.14581C17.6508 9.48757 18.0453 11.0668 17.9271 12.6501C17.8089 14.2334 17.1844 15.7366 16.1458 16.9375C16.5959 15.8465 16.7787 14.6638 16.679 13.4878C16.5793 12.3119 16.2001 11.1768 15.5729 10.1771C15.4896 10.0416 15.3958 9.92706 15.3125 9.80206C14.7135 8.96606 13.9473 8.2637 13.0625 7.73956C11.5625 8.21829 10.2537 9.16149 9.32492 10.4329C8.39619 11.7043 7.89572 13.238 7.89581 14.8125C7.89581 15.5833 8.0104 16.3229 8.21873 17.0104C7.31554 15.754 6.83082 14.2452 6.83331 12.6979C6.83331 10.25 8.02081 8.08331 9.84373 6.72915C8.33331 6.61456 6.72915 6.9479 5.33331 7.81248C4.68748 8.23956 4.12498 8.72915 3.64581 9.28123C4.21873 7.89581 5.20831 6.65623 6.56248 5.80206C8.12498 4.8229 9.89581 4.49998 11.6041 4.74998C11.1771 4.16665 10.6562 3.61456 10.0312 3.12498C9.42706 2.68748 8.77081 2.33331 8.08331 2.08331C9.58331 2.12498 11.0833 2.60415 12.3646 3.5729C13.0208 4.06248 13.5416 4.65623 13.9583 5.28123C14.0625 5.28123 14.1562 5.27081 14.2604 5.27081C17.5937 5.27081 20.4166 7.46873 21.3541 10.5C20.7681 9.67359 20.0179 8.97696 19.1504 8.4536C18.2829 7.93025 17.3168 7.59143 16.3125 7.45831Z" fill="#2F5296"/>
</svg>
