<svg width="23" height="24" viewBox="0 0 23 24" fill="none" xmlns="http://www.w3.org/2000/svg">
<path d="M10.5417 0C4.71966 0 0 4.92486 0 11C0 17.0751 4.71966 22 10.5417 22C16.3637 22 21.0833 17.0751 21.0833 11C21.0833 4.92486 16.3637 0 10.5417 0ZM6.75326 4.36938C6.97045 4.35602 7.16677 4.49148 7.3156 4.73193L8.75684 7.58397C8.90859 7.92192 8.82236 8.28379 8.59599 8.52526L7.93585 9.21409C7.89511 9.27236 7.8683 9.33797 7.86765 9.41013C8.12081 10.4327 8.88873 11.3759 9.56628 12.0245C10.2438 12.6732 10.972 13.5513 11.9173 13.7594C12.0341 13.7934 12.1773 13.8056 12.2609 13.7245L13.0278 12.9094C13.2926 12.7 13.6755 12.5986 13.9582 12.7698H13.971L16.5717 14.3717C16.9534 14.6214 16.993 15.104 16.7197 15.3976L14.9285 17.252C14.6639 17.535 14.3125 17.6302 13.9711 17.6306C12.461 17.5834 11.0342 16.81 9.86226 16.0153C7.93858 14.555 6.17403 12.7438 5.06624 10.5555C4.64137 9.63796 4.14228 8.46719 4.18991 7.44302C4.19416 7.05773 4.29406 6.68026 4.55409 6.43192L6.34535 4.56278C6.48488 4.43888 6.62293 4.37741 6.75326 4.36938V4.36938Z" fill="#737373"/>
</svg>
