<svg width="10" height="10" viewBox="0 0 10 10" fill="none" xmlns="http://www.w3.org/2000/svg">
<path d="M4.65751 8.15373C4.69574 8.20925 4.74688 8.25464 4.80655 8.286C4.86621 8.31736 4.93261 8.33374 5.00001 8.33374C5.06742 8.33374 5.13381 8.31736 5.19347 8.286C5.25314 8.25464 5.30429 8.20925 5.34251 8.15373L9.09251 2.73706C9.13592 2.67459 9.16137 2.60141 9.16611 2.52548C9.17085 2.44955 9.15469 2.37378 9.11938 2.30639C9.08408 2.23901 9.03098 2.18258 8.96586 2.14325C8.90074 2.10392 8.82609 2.08319 8.75001 2.08331H1.25001C1.17411 2.08363 1.09974 2.10462 1.03488 2.14405C0.970021 2.18347 0.917138 2.23983 0.881915 2.30706C0.846693 2.37429 0.830464 2.44985 0.834974 2.52562C0.839484 2.60138 0.864562 2.67449 0.907512 2.73706L4.65751 8.15373Z" fill="#7EC8FD"/>
</svg>
