<svg width="16" height="16" viewBox="0 0 16 16" fill="none" xmlns="http://www.w3.org/2000/svg">
<path d="M8 3.99996C10.358 3.99996 12.558 4.90196 14.1953 6.53929L15.138 5.59663C13.2493 3.70729 10.714 2.66663 8 2.66663C5.286 2.66729 2.75067 3.70729 0.862 5.59663L1.80467 6.53929C3.442 4.90196 5.642 3.99996 8 3.99996ZM11.7807 9.53796C9.73133 7.48863 6.26867 7.48863 4.21933 9.53796L5.162 10.4806C6.7 8.94263 9.3 8.94263 10.838 10.4806L11.7807 9.53796Z" fill="#F7F7F7"/>
<path d="M13.6246 7.5287C10.5766 4.47937 5.42398 4.47937 2.37598 7.5287L3.31864 8.47137C5.85664 5.93337 10.144 5.93337 12.682 8.47137L13.6246 7.5287Z" fill="#F7F7F7"/>
<path d="M8.00002 13.3334C8.7364 13.3334 9.33335 12.7364 9.33335 12C9.33335 11.2636 8.7364 10.6667 8.00002 10.6667C7.26364 10.6667 6.66669 11.2636 6.66669 12C6.66669 12.7364 7.26364 13.3334 8.00002 13.3334Z" fill="#F7F7F7"/>
</svg>
